<?xml version="1.0" encoding="UTF-8"?>
<svg version="1.1" xmlns="http://www.w3.org/2000/svg" width="494" height="357">
<path d="M0 0 C163.02 0 326.04 0 494 0 C494 117.81 494 235.62 494 357 C330.98 357 167.96 357 0 357 C0 239.19 0 121.38 0 0 Z " fill="#050606" transform="translate(0,0)"/>
<path d="M0 0 C3.63854496 1.18627108 6.98524073 2.38159706 10.328125 4.25 C11.11896484 4.68860352 11.90980469 5.12720703 12.72460938 5.57910156 C13.55798828 6.04799805 14.39136719 6.51689453 15.25 7 C16.12462891 7.48694336 16.99925781 7.97388672 17.90039062 8.47558594 C19.71270894 9.48497015 21.52390126 10.49637859 23.33398438 11.50976562 C25.84862435 12.91538489 28.36826919 14.31140953 30.890625 15.703125 C38.41879745 19.85996831 45.89567876 24.08414841 53.3125 28.4375 C60.24300416 32.46686288 67.33699721 36.18085626 74.44555664 39.88354492 C86.19724931 46.00790225 97.7537977 52.3995584 109.234375 59.015625 C119.91496854 65.23579384 119.91496854 65.23579384 130.875 70.9375 C136.60222952 73.71213238 142.09918568 76.84938527 147.625 80 C156.04654024 84.79869678 164.52013882 89.48224587 173.0625 94.0625 C174.14563477 94.64330322 175.22876953 95.22410645 176.34472656 95.82250977 C178.50625963 96.98112127 180.66787973 98.13957042 182.82958984 99.29785156 C208.02188387 112.82323844 208.02188387 112.82323844 220 120 C217.33479681 123.07450225 214.00920437 124.86336583 210.5 126.8125 C209.3553125 127.45832031 208.210625 128.10414063 207.03125 128.76953125 C203.94797959 130.48430395 200.84987268 132.17092393 197.75 133.85546875 C191.96333116 137.00646284 186.22875844 140.24519932 180.5 143.5 C173.8978416 147.25102387 167.27586776 150.95614838 160.60302734 154.58007812 C157.4703076 156.28894119 154.35726091 158.03133543 151.24487305 159.77685547 C145.61458596 162.93243644 139.99857471 166.06104119 134.1875 168.875 C127.8097378 171.99826626 121.70626899 175.56750968 115.55908203 179.11572266 C108.6198635 183.10776382 101.61180507 186.95613388 94.5625 190.75 C87.25683381 194.6828913 79.9980561 198.66397908 72.81860352 202.82324219 C68.10750701 205.52734648 63.34060978 208.13004712 58.578125 210.7421875 C57.19294678 211.50293579 57.19294678 211.50293579 55.77978516 212.27905273 C53.5201702 213.5199409 51.26023519 214.76024204 49 216 C49.00523682 216.77816574 49.01047363 217.55633148 49.01586914 218.358078 C49.05819455 225.70036534 49.06217757 233.04120825 49.02334595 240.38347912 C49.00472811 244.15816484 49.00081401 247.9316612 49.03076172 251.70629883 C49.05913279 255.35094361 49.04854184 258.99360421 49.01119995 262.63814735 C49.00376685 264.02676294 49.01025383 265.41552662 49.03103638 266.80400658 C49.1799232 277.64411323 49.1799232 277.64411323 46.37509155 280.86723328 C44.29967773 282.19100412 42.29075092 283.10828284 40 284 C38.40212646 284.91543579 38.40212646 284.91543579 36.77197266 285.84936523 C35.7463623 286.41341064 34.72075195 286.97745605 33.6640625 287.55859375 C32.51679688 288.19216797 31.36953125 288.82574219 30.1875 289.47851562 C29.00012386 290.1317356 27.8126233 290.78472948 26.625 291.4375 C19.31560989 295.45726228 12.04830436 299.48368898 5.00146484 303.95336914 C3 305 3 305 0 305 C0 266.39 0 227.78 0 188 C9.57 182.72 19.14 177.44 29 172 C36.52846571 167.6355899 36.52846571 167.6355899 44.046875 163.25390625 C48.32930921 160.78099441 52.72562805 158.5842574 57.171875 156.421875 C60.77663005 154.60953959 64.25651607 152.60922713 67.74658203 150.58642578 C73.59564272 147.20617489 79.50469309 143.93724975 85.41607666 140.66748047 C97.02345022 134.24609089 108.55424624 127.70573393 120 121 C115.54308763 117.10134565 110.61609843 114.42467225 105.4375 111.625 C104.53636475 111.13314209 103.63522949 110.64128418 102.70678711 110.13452148 C98.19972413 107.68662569 93.67707837 105.30291124 89.0625 103.0625 C82.53595206 99.87339135 76.28021003 96.21709401 69.99829102 92.57641602 C63.06485213 88.56650106 56.0639224 84.80365052 49 81 C48.67 98.16 48.34 115.32 48 133 C44.473125 134.8975 40.94625 136.795 37.3125 138.75 C27.28782742 144.16266286 17.37227578 149.74399685 7.49609375 155.421875 C1.19086381 159.04560016 -5.18134877 162.52745329 -11.625 165.8984375 C-22.98858088 171.85354319 -34.15665093 178.12509962 -45.30712891 184.46923828 C-49.11624785 186.63453074 -52.93157136 188.78867521 -56.75 190.9375 C-57.39445068 191.30029053 -58.03890137 191.66308105 -58.70288086 192.03686523 C-63.17756043 194.55061842 -67.67843938 197.01230392 -72.1953125 199.44921875 C-74.37557605 200.65474052 -76.53037122 201.88570901 -78.6796875 203.14453125 C-79.31310059 203.51376709 -79.94651367 203.88300293 -80.59912109 204.26342773 C-81.8423222 204.99041138 -83.08238763 205.72279095 -84.31884766 206.46118164 C-87.11324397 208.09264057 -88.70348504 209 -92 209 C-90.03162817 202.9252437 -87.89025943 196.94585115 -85.5625 191 C-85.27568359 190.2575 -84.98886719 189.515 -84.69335938 188.75 C-83.29123315 185.15256256 -81.83836256 181.59354873 -80.25 178.07421875 C-78.22408553 173.5705566 -76.32501599 169.01830772 -74.43359375 164.45703125 C-74.11117203 163.67987762 -73.78875031 162.902724 -73.45655823 162.10202026 C-72.10775857 158.84842246 -70.76055329 155.59417013 -69.4152832 152.33911133 C-68.42328318 149.94012738 -67.42859825 147.54227031 -66.43359375 145.14453125 C-66.13351913 144.4162764 -65.83344452 143.68802155 -65.52427673 142.93769836 C-60.42655913 130.66718971 -60.42655913 130.66718971 -56.33203125 128.54296875 C-55.61208984 128.15753906 -54.89214844 127.77210938 -54.15039062 127.375 C-53.37888672 126.983125 -52.60738281 126.59125 -51.8125 126.1875 C-50.17283749 125.31704564 -48.53352088 124.44593943 -46.89453125 123.57421875 C-46.07033691 123.14286621 -45.24614258 122.71151367 -44.39697266 122.26708984 C-40.89149442 120.41402078 -37.44647742 118.45994972 -34 116.5 C-27.41771012 112.7851274 -20.81340712 109.11049136 -14.20117188 105.44921875 C-13.49412109 105.05734375 -12.78707031 104.66546875 -12.05859375 104.26171875 C-11.44298584 103.92100342 -10.82737793 103.58028809 -10.19311523 103.22924805 C-9.10752319 102.62077026 -9.10752319 102.62077026 -8 102 C-6.22707581 101.26433556 -6.22707581 101.26433556 -4.41833496 100.5138092 C-2.16611107 99.2099928 -1.18981932 98.56088754 -0.34690189 96.07019329 C-0.09456914 93.54108028 -0.06896012 91.0913447 -0.11352539 88.54980469 C-0.09736176 87.11515366 -0.09736176 87.11515366 -0.08087158 85.65151978 C-0.05346753 82.49085619 -0.075366 79.3325466 -0.09765625 76.171875 C-0.08827415 73.98039263 -0.07581821 71.78892143 -0.06040955 69.59747314 C-0.02812774 63.83014994 -0.03764666 58.06362033 -0.05578613 52.29626465 C-0.06692832 46.41096241 -0.03865585 40.52586514 -0.01367188 34.640625 C0.02952402 23.09360825 0.02857424 11.54704653 0 0 Z " fill="#FCFCFC" transform="translate(184,17)"/>
</svg>
